/* XPM */
static const char *collect[] = {
/* columns rows colors chars-per-pixel */
"32 32 135 2 ",
"   c #A18F47",
".  c #A29047",
"X  c #A49249",
"o  c #A9964C",
"O  c #AC994E",
"+  c #B09C4F",
"@  c #AD9A51",
"#  c #B29F52",
"$  c #B5A153",
"%  c #B9A556",
"&  c #BBA856",
"*  c #B5A359",
"=  c #BAA65B",
"-  c #BDAA5B",
";  c #BCAA61",
":  c #C2AD5C",
">  c #C6B15E",
",  c #C8B35F",
"<  c #C1AE63",
"1  c #C5B263",
"2  c #C9B562",
"3  c #C9B863",
"4  c #CBB864",
"5  c #CAB965",
"6  c #CBB965",
"7  c #CBBB66",
"8  c #CCBC64",
"9  c #CDBD64",
"0  c #CDBD65",
"q  c #CEBE65",
"w  c #CEBE66",
"e  c #CEBE67",
"r  c #CFBF67",
"t  c #CEBD66",
"y  c #C2B068",
"u  c #C3B168",
"i  c #C5B369",
"p  c #C6B368",
"a  c #C7B46B",
"s  c #C6B46C",
"d  c #C3B16A",
"f  c #C9B76F",
"g  c #C9B66B",
"h  c #CCBB68",
"j  c #CCBA69",
"k  c #CEBE68",
"l  c #CFBF68",
"z  c #CFBF69",
"x  c #CBB86F",
"c  c #CBB96F",
"v  c #CEBA6D",
"b  c #CCB96E",
"n  c #CEBB6E",
"m  c #CFBB6E",
"M  c #CDB96C",
"N  c #D0BE6A",
"B  c #D0BF6A",
"V  c #D0BF6C",
"C  c #D2BF6E",
"Z  c #CAB870",
"A  c #CCBA70",
"S  c #CCBA71",
"D  c #CDBA71",
"F  c #CCBA72",
"G  c #CDBA73",
"H  c #CEBB72",
"J  c #CFBC70",
"K  c #CFBC73",
"L  c #CFBD74",
"P  c #CFBD76",
"I  c #CEBB73",
"U  c #D3BF71",
"Y  c #D0BD72",
"T  c #D0BD73",
"R  c #D0BD75",
"E  c #D0BE75",
"W  c #D0BE76",
"Q  c #D1BF76",
"!  c #D1BE77",
"~  c #D1BF77",
"^  c #D1BE75",
"/  c #D0C068",
"(  c #D0C069",
")  c #D2C269",
"_  c #D1C16A",
"`  c #D1C06B",
"'  c #D1C16B",
"]  c #D2C26A",
"[  c #D3C36A",
"{  c #D2C26B",
"}  c #D3C36B",
"|  c #D4C46B",
" . c #D2C16C",
".. c #D2C16D",
"X. c #D2C26C",
"o. c #D3C36C",
"O. c #D2C26D",
"+. c #D3C26E",
"@. c #D3C36E",
"#. c #D3C36F",
"$. c #D5C56C",
"%. c #D4C46D",
"&. c #D5C56D",
"*. c #D5C56E",
"=. c #D4C46F",
"-. c #D5C46F",
";. c #D5C56F",
":. c #D4C46B",
">. c #D3C373",
",. c #D4C371",
"<. c #D4C373",
"1. c #D5C470",
"2. c #D5C471",
"3. c #D5C472",
"4. c #D5C473",
"5. c #D4C374",
"6. c #D4C375",
"7. c #D4C276",
"8. c #D4C376",
"9. c #D5C376",
"0. c #D4C377",
"q. c #D5C474",
"w. c #D5C475",
"e. c #D2C078",
"r. c #D3C078",
"t. c #D2C079",
"y. c #D3C179",
"u. c #D3C17A",
"i. c #D4C278",
"p. c #D4C378",
"a. c #D4C279",
"s. c #D4C379",
"d. c #D4C27A",
"f. c None",
"g. c black",
/* pixels */
"f.f.f.f.f.f.f.f.f.f.f.f.f.f.f.f.f.f.f.f.f.f.f.f.f.f.f.f.f.f.f.f.",
"f.f.f.f.f.f.f.f.f.f.f.f./ O.O.O./ / / / | f.f.f.f.f.f.f.f.f.f.f.",
"f.f.f.f.f.f.f.f.f.O.O.O.>.8.a.8.8.8.3.<.O./ / f.f.f.f.f.f.f.f.f.",
"f.f.f.f.f.f.f.f./ 8.a.8.a.a.a.a.8.8.a.a.a.8.;./ | f.f.f.f.f.f.f.",
"f.f.f.f.f.f./ / ;.8.3.;.3.3.V B k k V q.a.a.8.q.O./ f.f.f.f.f.f.",
"f.f.f.f.f./ O.8.;.;.;.7 : % $ $ $ $ $ - M Y 8.a.8.O./ f.f.f.f.f.",
"f.f.f.f./ O.8.a.;.q : 1 c p : : : - % $ $ % M 3.8.3.O./ f.f.f.f.",
"f.f.f.f./ 8.a.3.1 < b Q Y 6 2 2 2 , : % $ # $ 1 ;.;.;./ | f.f.f.",
"f.f.f.k <.a.3.1 < e.e.b 1 - - 6 : % % : * $ $ $ > ;.;.;./ f.f.f.",
"f.f.f./ 3.3.q - Q e.b 1 = ; G P ; o O : % % - % % 3 ;.;./ / f.f.",
"f.f.q | ;.;.& - e.J 6 < G P u * * - : : - > 2 > - % B ;.;./ f.f.",
"f.f.q ;.;.7 * < Q b b e.G < # - 2 4 6 - e.6 2 2 > % 1 ;.;./ / f.",
"f.f./ ;.;.- # = Q Q Q Q ; = f J Y Y G s Z p 2 2 , - % | ;.| / f.",
"f.q | ;.;.* # # $ # # @ X @ ; 1 u u 1 ; @ $ : 2 2 : $ q ;.;./ f.",
"f.q ;.;./ $ $ = = - # X   X @ * * * * @ X X - 6 2 : $ 7 ;.;./ f.",
"f.q ;.;.k $ = e.e.e.= o X X * a c G G p @ @ Q e.1 & $ 2 ;.;./ f.",
"f.q ;.;.q $ $ = * # o X . X * u 1 < ; * X O ; - $ $ # 2 ;.;./ f.",
"f.q ;.;.B $ # # $ * $ o X * - - - % @ X X X o o o # # 7 ;.;./ f.",
"f.q / ;.;.$ # $ - % o . X % > 2 2 > : # X X O + # # $ q ;.| / f.",
"f.f./ ;.;.& + O o X O @ @ o $ - > 2 - o o # $ $ # # $ | ;./ / f.",
"f.f.q ;.;.1 # X X * > f G ; @ o # : - # : > : % # # > | ;./ f.f.",
"f.f.q / ;.;.% O O % > 6 c P u = o : > > 2 2 2 : $ $ q ;.| / f.f.",
"f.f.f.q | | 7 $ # $ % > 6 a Q G 1 > > 2 2 2 2 : $ 1 ;.;./ / f.f.",
"f.f.f.9 / | ;.> $ # # - j M b b 4 : : 2 2 2 2 - : ;.;.| / f.f.f.",
"f.f.f.f.q | ;.;.> $ $ = P Q Q Y c & % : > > : : / | ;./ f.f.f.f.",
"f.f.f.f.f.q ;.;.;.7 * * = - u a u * # $ $ % 1 ;.| | / / f.f.f.f.",
"f.f.f.f.f.f.q | | | ;.1 % $ * % * $ $ % > q ;.;.;./ / f.f.f.f.f.",
"f.f.f.f.f.f.f.q / | | | ;.q q 6 6 6 q ;.;.;.;.| / f.f.f.f.f.f.f.",
"f.f.f.f.f.f.f.f.9 q / ;.;.;.;.;.| ;.| ;.;.| / q f.f.f.f.f.f.f.f.",
"f.f.f.f.f.f.f.f.f.f.q q / / ;.;.;.;.| / q q f.f.f.f.f.f.f.f.f.f.",
"f.f.f.f.f.f.f.f.f.f.f.f.f.q q q q q q f.f.f.f.f.f.f.f.f.f.f.f.f.",
"f.f.f.f.f.f.f.f.f.f.f.f.f.f.f.f.f.f.f.f.f.f.f.f.f.f.f.f.f.f.f.f."
};
