/* XPM */
static const char *exit[] = {
/* columns rows colors chars-per-pixel */
"32 32 25 1 ",
"  c #45A02D",
". c #45A02E",
"X c #45A12E",
"o c #46A130",
"O c #46A230",
"+ c #4AA63C",
"@ c #4AA63D",
"# c #4AA73D",
"$ c #4AA73F",
"% c #4BA740",
"& c #53B057",
"* c #53B058",
"= c #56B35F",
"- c #55B360",
"; c #5CBA72",
": c #5CBA73",
"> c #5CBA74",
", c #5EBC79",
"< c #5EBC7A",
"1 c #5EBD7A",
"2 c #5FBD7C",
"3 c #61C083",
"4 c #62C085",
"5 c #62C185",
"6 c #62C186",
/* pixels */
"66666666666666666666666666666666",
"66666666666666666666666666666666",
"66666666666666666666666666666666",
"66666666666666666666666666666666",
"66632<<<<<<<<<<<<<<<<<<<<<<23666",
"666:%oooooooooooooooooooooo@:666",
"666:@                      @:666",
"666:@                      @:666",
"666:@                      @:666",
"666>@                      @:666",
"666:@                      @:666",
"666:@                      @:666",
"666:@                      @:666",
"666:@                      @:666",
"666:@                      @:666",
"666:@                      @:666",
"666:@                      @:666",
"666:@                      @:666",
"666:@                      @:666",
"666:@                      @:666",
"666:@                      @:666",
"666:@                      @:666",
"666:@                      @:666",
"666:@                      @:666",
"666>@                      @:666",
"666:@                      @:666",
"6662-&&*&**&&*&**&**&**&&*&=2666",
"66666666666666666666666666666666",
"66666666666666666666666666666666",
"66666666666666666666666666666666",
"66666666666666666666666666666666",
"66666666666666666666666666666666"
};
