/* XPM */
static const char *player[] = {
/* columns rows colors chars-per-pixel */
"32 32 2 1 ",
"  c #42214D",
". c None",
/* pixels */
"................................",
"................................",
"................................",
"................................",
"..........          ............",
".........             ..........",
".........   .......   ..........",
".........  .........   .........",
".........  ..........  .........",
".........  ..........  .........",
".........   ........   .........",
"..........  .......   ..........",
"..........   ..      ...........",
"   ........         ........    ",
".     ......    .........      .",
"...      ....  ........      ...",
".....      ..  .....      ......",
"........       ..      .........",
"..........          ............",
"............      ..............",
".............  .................",
".............  .................",
".............  .................",
".............  .................",
"............    ................",
"...........     ................",
"..........   .   ...............",
"........    ...   ..............",
".......    .....  ..............",
"......   .......   .............",
".....   .........   ............",
"..................   ..........."
};
