/* XPM */
static const char *wall[] = {
/* columns rows colors chars-per-pixel */
"32 32 10 1 ",
"  c #A5C3BE",
". c #B0CCC7",
"X c #B1CDC8",
"o c #B1CDC9",
"O c #C4DDD9",
"+ c #C5DEDA",
"@ c #C5DFDB",
"# c #C6DFDB",
"$ c #C6E0DB",
"% c #C7E0DC",
/* pixels */
"+%%%%$%%%%%%%%%%%%%%%%%%%%%%%%%%",
"++++++++++++++++++++++++++++++++",
".XXXXXXXXXXXXXXXXXXXXXXXXXXXXXXX",
"                                ",
"                                ",
"                                ",
"                                ",
"                                ",
"                                ",
"                                ",
"                                ",
"                                ",
"                                ",
"                                ",
"                                ",
"                                ",
"                                ",
"                                ",
"                                ",
"                                ",
"                                ",
"                                ",
"                                ",
"                                ",
"                                ",
"                                ",
"                                ",
"                                ",
"                                ",
"                                ",
"                                ",
"                                "
};
