/* XPM */
static const char *collectible[] = {
/* columns rows colors chars-per-pixel */
"32 32 129 2 ",
"   c #A18F47",
".  c #A29047",
"X  c #A49249",
"o  c #A9964C",
"O  c #AC994E",
"+  c #B09C4F",
"@  c #AD9A51",
"#  c #B29F52",
"$  c #B5A153",
"%  c #B9A556",
"&  c #BBA856",
"*  c #B5A359",
"=  c #BAA65B",
"-  c #BDAA5B",
";  c #BCAA61",
":  c #C2AD5C",
">  c #C6B15E",
",  c #C8B35F",
"<  c #C1AE63",
"1  c #C5B263",
"2  c #C9B562",
"3  c #CDBC65",
"4  c #C4B269",
"5  c #C9B76C",
"6  c #CDBA6C",
"7  c #D0BF6B",
"8  c #CDBB72",
"9  c #C5BF7A",
"0  c #D1BE75",
"q  c #CFC16D",
"w  c #D4C46C",
"e  c #CEC273",
"r  c #C5C07E",
"t  c #CBC37A",
"y  c #D4C474",
"u  c #D3C279",
"i  c #D3C97C",
"p  c #BBBF8F",
"a  c #B6BE95",
"s  c #B9BF91",
"d  c #C0BF85",
"f  c #B7C099",
"g  c #BBC49C",
"h  c #BCC6A2",
"j  c #BDC8A5",
"k  c #BECAA9",
"l  c #C2C082",
"z  c #C5C48B",
"x  c #D2CA83",
"c  c #D2CD8C",
"v  c #C6C996",
"b  c #CFCD92",
"n  c #C7CC9F",
"m  c #D2CF92",
"M  c #D4D193",
"N  c #D6D49B",
"B  c #D6D59C",
"V  c #D3D39C",
"C  c #C1CAA4",
"Z  c #CCD4AD",
"A  c #D6D7A2",
"S  c #D6D7A3",
"D  c #D4D5A2",
"F  c #D4D7A8",
"G  c #D6D9AA",
"H  c #D5D9AE",
"J  c #C2CEB0",
"K  c #C2CFB2",
"L  c #C5D0B0",
"P  c #C6D2B1",
"I  c #C7D5BA",
"U  c #C8D7BE",
"Y  c #C9D7BD",
"T  c #CFDABD",
"R  c #CCDABF",
"E  c #D5DCB3",
"W  c #D8DEB7",
"Q  c #D5DDB9",
"!  c #D6DFBA",
"~  c #D8DEB8",
"^  c #D8E0BD",
"/  c #D8E1BF",
"(  c #CAD8C0",
")  c #CAD9C1",
"_  c #CCDCC6",
"`  c #CDDCC6",
"'  c #CDDCC7",
"]  c #CEDEC9",
"[  c #CEDEC9",
"{  c #D7E2C4",
"}  c #D8E1C0",
"|  c #D8E2C2",
" . c #D8E3C4",
".. c #D8E3C5",
"X. c #D8E3C6",
"o. c #D8E3C7",
"O. c #D8E3C4",
"+. c #D3E2CC",
"@. c #D8E5CA",
"#. c #D8E5CC",
"$. c #D8E6CD",
"%. c #D8E5CB",
"&. c #D2E3D0",
"*. c #D2E3D2",
"=. c #D2E4D2",
"-. c #D7E7D3",
";. c #D3E5D4",
":. c #D5E6D6",
">. c #D8E7D1",
",. c #D9E7D2",
"<. c #D9E7D3",
"1. c #D9E8D3",
"2. c #D9E8D5",
"3. c #D9E9D7",
"4. c #D9E8D5",
"5. c #D6E8DA",
"6. c #D7E9DC",
"7. c #D7EADC",
"8. c #D7E9DB",
"9. c #D9EAD9",
"0. c #D9EADA",
"q. c #D9EADB",
"w. c #D9EBDC",
"e. c #D8EBDE",
"r. c #D9EBDE",
"t. c #D9ECDF",
"y. c #D9EBDC",
"u. c #D9ECE0",
"i. c #D9ECE0",
/* pixels */
"u.u.u.t.e.6.6.e.t.u.t.q.2.$...| | ..@.,.q.e.u.u.u.u.u.u.u.u.u.u.",
"u.u.6.*.` U U ` *.-...G c i y y y y i c D ^ ,.e.u.u.u.u.u.u.u.u.",
"u.5.` J h g g h n c y w y y u y y y y y y y c W ,.e.u.u.u.u.u.u.",
"6.` k f a a s l e y u y u u u u y y u u u y w y N ..q.u.u.u.u.u.",
"=.J f a a p 9 w w y y w y y 7 7 3 3 7 y u u y y w x | e.u.u.u.u.",
"` j a a s 9 w y w w w 3 : % $ $ $ $ $ - 6 0 y u y w x ^ e.u.u.u.",
"( g a s 9 w y u w 3 : 1 6 4 : : : - % $ $ % 6 y y y w c ..e.u.u.",
"( h a d w y u y 1 < 6 0 0 5 2 2 2 , : % $ # $ > w w w w V 1.u.u.",
"] j p 8 y u y 1 < u u 6 1 - - 5 : % % : * $ $ $ > w w w y ~ e.u.",
";.L l w y y 3 - 0 u 6 1 = ; 8 8 ; o O : % % - % * 2 w w w M ,.u.",
"6.T e w w w & - u 8 5 < 8 8 4 * * - : : - > 2 > - % 7 w w y ^ e.",
"e.Q q w w 3 * < 0 6 6 u 8 < # - 2 2 5 - u 5 2 2 > % 1 w w w D q.",
"q.F w w w - # = 0 0 0 0 ; = 5 8 0 0 8 4 8 4 2 2 2 - % w w w c 1.",
"2.M w w w * # # $ # # @ X @ ; 1 4 4 1 ; @ $ : 2 2 : $ 3 w w i $.",
"2.x w w w $ $ = = - # X   X @ * * * * @ X X - 5 2 : $ 3 w w y ..",
",.x w w 3 $ = u u u = o X X * 5 6 8 8 4 @ @ 0 u 1 & $ 2 w w y | ",
"1.x w w 3 $ $ = * # o X . X * 4 1 < ; * X O ; - $ $ # 2 w w y | ",
"2.x w w 7 $ # # $ * $ o X * - - - % @ X X X o o o # # 3 w w i @.",
"q.V w w w $ # $ - % o . X % > 2 2 > : # X X O + # # $ 3 w w x $.",
"e.H w w w - # O o X O @ @ o $ - > 2 - o o # $ $ # # * w w w M 2.",
"e.@.q w w 1 # X X * > 5 8 ; @ o # : - # : > : % # # > w w w E e.",
"u.2.c w w w % O O % > 5 6 8 4 = o : > > 2 2 2 : $ $ 3 w w i o.t.",
"u.e.Q q w w 3 $ # $ % > 5 5 0 8 1 > > 2 2 2 2 : $ 1 w w w b 2.u.",
"u.u.2.c w w w > $ # # - 5 6 6 6 2 : : 2 2 2 2 - : w w w e Z 6.u.",
"u.u.e.| e w w w > $ $ = 8 0 0 0 6 & % : > > : : w w w q z T e.u.",
"u.u.u.q.E q w w w 3 * * = - 4 5 4 * # $ $ % 1 w w w w r C +.e.u.",
"u.u.u.u.q.H q w w w w 1 % $ * % * $ $ % > 3 w w w w r g U 5.u.u.",
"u.u.u.u.u.q.E e w w w w w 3 3 5 5 3 3 w w w w w q l g I :.t.u.u.",
"u.u.u.u.u.u.q.| m q w w w w w w w w w w w w w t v P ] 5.t.u.u.u.",
"u.u.u.u.u.u.u.e.2.Q m e w w w w w w w w y c H o.:.6.e.u.u.u.u.u.",
"u.u.u.u.u.u.u.u.u.e.2.@.E D m c c m V H ..,.q.t.u.t.t.u.u.u.u.u.",
"u.u.u.u.u.u.u.u.u.t.u.t.e.q.2.2.2.2.2.q.e.u.u.u.u.u.u.u.u.u.u.u."
};
