/* XPM */
static const char *enemy_01[] = {
/* columns rows colors chars-per-pixel */
"32 32 145 2 ",
"   c #BF3D3D",
".  c #C1272D",
"X  c #C23136",
"o  c #C03739",
"O  c #C23A3D",
"+  c #BF403F",
"@  c #C43D42",
"#  c #BE4744",
"$  c #BE4A46",
"%  c #BE4E49",
"&  c #BE544D",
"*  c #BD6055",
"=  c #BE655C",
"-  c #BC6C5E",
";  c #BB6F60",
":  c #BC7364",
">  c #BA7E6A",
",  c #C44246",
"<  c #C5464A",
"1  c #C54A4E",
"2  c #C64E51",
"3  c #C65254",
"4  c #C05853",
"5  c #C75658",
"6  c #C75A5C",
"7  c #C85C5E",
"8  c #C85F61",
"9  c #C96465",
"0  c #C26D64",
"q  c #C96768",
"w  c #C96D6D",
"e  c #C5746D",
"r  c #CA7574",
"t  c #CB7877",
"y  c #CB7B7A",
"u  c #BA836E",
"i  c #B98B73",
"p  c #B89B7E",
"a  c #C08B7A",
"s  c #B89E80",
"d  c #B7A383",
"f  c #B7A987",
"g  c #B6AE8B",
"h  c #BBA88C",
"j  c #B6B28E",
"k  c #B6B791",
"l  c #BBB495",
"z  c #B5BD96",
"x  c #BFB399",
"c  c #B7BD98",
"v  c #B9BF9B",
"b  c #CC8381",
"n  c #CD8986",
"m  c #CE8D8A",
"M  c #C59788",
"N  c #CD928D",
"B  c #C6998B",
"V  c #CF9692",
"C  c #CD9B94",
"Z  c #CF9D98",
"A  c #CEA69E",
"S  c #D0A19C",
"D  c #C2B39C",
"F  c #D1A7A2",
"G  c #D1ABA5",
"H  c #D1AEA8",
"J  c #CBB5A6",
"K  c #CFBAAF",
"L  c #D2B3AC",
"P  c #D3B7B0",
"I  c #D3BCB4",
"U  c #B7C09A",
"Y  c #B9C39E",
"T  c #BBC6A3",
"R  c #BDC8A6",
"E  c #BECAA9",
"W  c #C4C7AD",
"Q  c #C2CCAE",
"!  c #CAC5B2",
"~  c #C3CDB1",
"^  c #D3C0B7",
"/  c #D4C4BB",
"(  c #D5C8BF",
")  c #C4D1B5",
"_  c #C7D5BB",
"`  c #C9D6BD",
"'  c #C9D8BF",
"]  c #D5CBC2",
"[  c #CCD7C2",
"{  c #CCDBC5",
"}  c #CEDECA",
"|  c #D5D1C7",
" . c #D6D4CA",
".. c #D7D8CE",
"X. c #D7DCD1",
"o. c #D7DCD2",
"O. c #D7DDD3",
"+. c #D7DED3",
"@. c #D7DFD4",
"#. c #D7DDD2",
"$. c #D1E1CF",
"%. c #D2E3D2",
"&. c #D4E2D2",
"*. c #D2E4D2",
"=. c #D3E4D3",
"-. c #D7E0D5",
";. c #D3E5D4",
":. c #D4E4D4",
">. c #D4E6D6",
",. c #D4E6D7",
"<. c #D5E3D5",
"1. c #D8E1D6",
"2. c #D8E2D7",
"3. c #D8E1D6",
"4. c #D7E5D8",
"5. c #D6E5D9",
"6. c #D7E6DA",
"7. c #D6E7D9",
"8. c #D8E3D8",
"9. c #D8E4D9",
"0. c #D8E5DA",
"q. c #D8E6DA",
"w. c #D8E7DA",
"e. c #D8E7DB",
"r. c #D8E7DC",
"t. c #D8E6DA",
"y. c #D6E8D9",
"u. c #D6E8DA",
"i. c #D6E9DB",
"p. c #D7E9DC",
"a. c #D7EADC",
"s. c #D7EADD",
"d. c #D7E9DB",
"f. c #D9E8DC",
"g. c #D9E9DD",
"h. c #D8EADD",
"j. c #D9EADE",
"k. c #D8EBDE",
"l. c #D9EADF",
"z. c #D8EBDF",
"x. c #D9EBDF",
"c. c #D9ECDF",
"v. c #D9EADE",
"b. c #D9ECE0",
"n. c #D9ECE0",
/* pixels */
"b.b.b.c.k.p.p.k.c.b.b.b.b.b.b.b.b.b.b.b.b.b.b.b.b.b.b.b.b.b.b.b.",
"b.b.p.%.{ ' ' { *.p.b.b.b.b.b.b.b.b.b.b.b.b.b.b.b.b.b.b.b.b.b.b.",
"b.u.{ ~ T Y Y R ~ { u.b.b.b.b.b.b.b.b.b.b.b.b.b.b.b.b.b.b.b.b.b.",
"p.{ E U z z z z U E } p.b.b.b.b.b.b.b.b.b.b.b.b.b.b.b.b.b.b.b.b.",
"*.~ U z z z z z z U ) *.c.b.b.b.k.0.0.0.0.0.0.0.k.b.b.b.b.b.b.b.",
"{ R z z z z z z z k x J P I / ^ L S S S S S S S G P / X.k.b.b.b.",
"[ Y z z z z z k d > & , O , 1 1 @ , , , , , , , @ @ 2 m  .k.b.b.",
"[ T z z z z f u $ o X X , 7 b N L I I I I I I I P F r 2 n X.b.b.",
"} R z z k p & . & u : C I | X.2.k.b.b.b.b.b.b.b.b.r.] t < P k.b.",
";.) U z p $ $ > f c W &.b.b.b.b.b.b.b.b.b.b.b.b.b.b.k.L @ y X.b.",
"p.} Q k - o u k U Q } 5.k.b.b.b.b.b.b.b.b.b.b.b.b.b.b...y 1 I k.",
"b.u.} D 1 = l E ) }  .G ^ 2.k.b.b.b.b.b.b.b.b.b.k.X.8.k.L , V 2.",
"b.b.5.A , C [ } >.5.G , 1 C ..k.b.b.b.b.b.b.b.k./ b L 0.] 9 w  .",
"b.b.2.N 2 ^ k.k.c.b.@.G q 1 n ( k.b.b.b.b.b.k.] 8 1 F 0...y 7 ] ",
"b.b.X.n 5 / b.b.b.b.b.r./ r X 7 P 2.k.b.b.b...b @ C X.k.X.n 5 ( ",
"b.b.X.n 5 ] b.b.b.b.b.b.k. .C 2 5 L 0.b.b.8.C < y ..b.b.X.n 5 ( ",
"b.b.X.n 5 ( b.b.b.b.b.b.b.b.8.L t L 0.b.b.] < w ] k.b.b.X.n 5 ] ",
"b.b.8.V 1 I k.b.b.b.b.b.b.b.b.k...2.k.b.c.5./ ] >.u.k.c...y 6 ] ",
"b.b.k.H < S 0.b.b.b.b.b.b.b.b.b.b.b.b.k.>.{ ) E E ) { >.] q w  .",
"b.b.b.] 7 r  .b.b.b.b.b.b.b.0.| ^ P I / Q Y z z z z Y ) K 3 b X.",
"b.b.b.X.b 1 ^ k.b.b.b.b.k. .S q 1 @ , 4 u f z z z z z v M < F k.",
"b.b.b.k.L < m @.b.b.b.0.P t X 8 m G N 4   * g z z z z j 0 3 / b.",
"b.b.b.b. .w < L k.b.b.] 3 3 m ( -.0.` h : # d z z z z p % e  .b.",
"b.b.b.b.k.P < q / k.b.0.] / @.k.b.p.' Y j d k z z z f - O B >.b.",
"b.b.b.b.b.2.Z 2 t ^ 0.b.b.b.b.b.b.k.{ T z z z z k s -   = ! k.b.",
"b.b.b.b.b.b.X.m , 6 F  .8.k.b.b.b.k.$.E z z z j i %   ; x $.k.b.",
"b.b.b.b.b.b.k.X.G 5 O w V P / ] ] | | ! l g d :   % i l ' u.b.b.",
"b.b.b.b.b.b.b.b.0./ N 8 < , 3 9 q w t y e = & + * p Y _ >.c.b.b.",
"b.b.b.b.b.b.b.b.b.k.2.] P F m y r w 8 6 6 6 0 a D ) } u.c.b.b.b.",
"b.b.b.b.b.b.b.b.b.b.b.b.b.k.X. . .| ] ] ] ] | &.5.p.k.b.b.b.b.b.",
"b.b.b.b.b.b.b.b.b.b.b.b.b.b.b.b.b.b.b.b.b.b.b.b.b.b.b.b.b.b.b.b.",
"b.b.b.b.b.b.b.b.b.b.b.b.b.b.b.b.b.b.b.b.b.b.b.b.b.b.b.b.b.b.b.b."
};
