/* XPM */
static const char *enemy_02[] = {
/* columns rows colors chars-per-pixel */
"32 32 145 2 ",
"   c #BF3D3D",
".  c #C1272D",
"X  c #C23136",
"o  c #C03739",
"O  c #C23A3D",
"+  c #BF403F",
"@  c #C43D42",
"#  c #BE4744",
"$  c #BE4A46",
"%  c #BE4E49",
"&  c #BE544D",
"*  c #BD6055",
"=  c #BE655C",
"-  c #BC6C5E",
";  c #BB6F60",
":  c #BC7364",
">  c #BA7E6A",
",  c #C44246",
"<  c #C5464A",
"1  c #C54A4E",
"2  c #C64E51",
"3  c #C65254",
"4  c #C05853",
"5  c #C75658",
"6  c #C75A5C",
"7  c #C85C5E",
"8  c #C85F61",
"9  c #C96465",
"0  c #C26D64",
"q  c #C96768",
"w  c #C96D6D",
"e  c #C5746D",
"r  c #CA7574",
"t  c #CB7877",
"y  c #CB7B7A",
"u  c #BA836E",
"i  c #B98B73",
"p  c #B89B7E",
"a  c #C08B7A",
"s  c #B89E80",
"d  c #B7A383",
"f  c #B7A987",
"g  c #B6AE8B",
"h  c #BBA88C",
"j  c #B6B28E",
"k  c #B6B791",
"l  c #BBB495",
"z  c #B5BD96",
"x  c #BFB399",
"c  c #B7BD98",
"v  c #B9BF9B",
"b  c #CC8381",
"n  c #CD8986",
"m  c #CE8D8A",
"M  c #C59788",
"N  c #CD928D",
"B  c #C6998B",
"V  c #CF9692",
"C  c #CD9B94",
"Z  c #CF9D98",
"A  c #CEA69E",
"S  c #D0A19C",
"D  c #C2B39C",
"F  c #D1A7A2",
"G  c #D1ABA5",
"H  c #D1AEA8",
"J  c #CBB5A6",
"K  c #CFBAAF",
"L  c #D2B3AC",
"P  c #D3B7B0",
"I  c #D3BCB4",
"U  c #B7C09A",
"Y  c #B9C39E",
"T  c #BBC6A3",
"R  c #BDC8A6",
"E  c #BECAA9",
"W  c #C4C7AD",
"Q  c #C2CCAE",
"!  c #CAC5B2",
"~  c #C3CDB1",
"^  c #D3C0B7",
"/  c #D4C4BB",
"(  c #D5C8BF",
")  c #C4D1B5",
"_  c #C7D5BB",
"`  c #C9D6BD",
"'  c #C9D8BF",
"]  c #D5CBC2",
"[  c #CCD7C2",
"{  c #CCDBC5",
"}  c #CEDECA",
"|  c #D5D1C7",
" . c #D6D4CA",
".. c #D7D8CE",
"X. c #D7DCD1",
"o. c #D7DCD2",
"O. c #D7DDD3",
"+. c #D7DED3",
"@. c #D7DFD4",
"#. c #D7DDD2",
"$. c #D1E1CF",
"%. c #D2E3D2",
"&. c #D4E2D2",
"*. c #D2E4D2",
"=. c #D3E4D3",
"-. c #D7E0D5",
";. c #D3E5D4",
":. c #D4E4D4",
">. c #D4E6D6",
",. c #D4E6D7",
"<. c #D5E3D5",
"1. c #D8E1D6",
"2. c #D8E2D7",
"3. c #D8E1D6",
"4. c #D7E5D8",
"5. c #D6E5D9",
"6. c #D7E6DA",
"7. c #D6E7D9",
"8. c #D8E3D8",
"9. c #D8E4D9",
"0. c #D8E5DA",
"q. c #D8E6DA",
"w. c #D8E7DA",
"e. c #D8E7DB",
"r. c #D8E7DC",
"t. c #D8E6DA",
"y. c #D6E8D9",
"u. c #D6E8DA",
"i. c #D6E9DB",
"p. c #D7E9DC",
"a. c #D7EADC",
"s. c #D7EADD",
"d. c #D7E9DB",
"f. c #D9E8DC",
"g. c #D9E9DD",
"h. c #D8EADD",
"j. c #D9EADE",
"k. c #D8EBDE",
"l. c #D9EADF",
"z. c #D8EBDF",
"x. c #D9EBDF",
"c. c #D9ECDF",
"v. c #D9EADE",
"b. c #D9ECE0",
"n. c #D9ECE0",
/* pixels */
"b.b.b.b.b.b.b.b.b.b.b.b.b.b.b.b.b.b.b.b.b.b.b.c.l.p.p.l.c.b.b.b.",
"b.b.b.b.b.b.b.b.b.b.b.b.b.b.b.b.b.b.b.b.b.b.p.=.{ ` ` { %.p.b.b.",
"b.b.b.b.b.b.b.b.b.b.b.b.b.b.b.b.b.b.b.b.b.y.{ ~ T Y Y T ~ { y.b.",
"b.b.b.b.b.b.b.b.b.b.b.b.b.b.b.b.b.b.b.b.p.} E U z z z z U E { p.",
"b.b.b.b.b.b.b.l.q.q.q.q.q.q.q.l.b.b.b.c.=.) U z z z z z z U ~ =.",
"b.b.b.l.+./ P G S S S S S S S L ^ / I P J x k z z z z z z z T { ",
"b.b.l. .m 2 @ @ , , , , , , , @ 1 1 , O , & > d k z z z z z Y [ ",
"b.b.+.n 2 r F P I I I I I I I L N b 7 , X X o $ u f z z z z T [ ",
"b.l.P < t ] r.b.b.b.b.b.b.b.b.l.2.+.| I C : u & . & p k z z R } ",
"b.X.y @ L l.b.b.b.b.b.b.b.b.b.b.b.b.b.b.&.W c f > $ $ p z U ) ;.",
"l.I 1 y ..b.b.b.b.b.b.b.b.b.b.b.b.b.b.l.7.} Q U k u o - k Q } p.",
"2.V , L l.8.+.l.b.b.b.b.b.b.b.b.b.l.2.^ G  .} ) E l = 1 D } y.b.",
" .w 9 ] q.L b / l.b.b.b.b.b.b.b.l...C 1 , G 7.:.} [ C , A 7.b.b.",
"] 7 y ..q.F 1 8 ] l.b.b.b.b.b.l.( n 1 q G @.b.c.l.l.^ 2 N 2.b.b.",
"( 5 n +.l.+.C @ b ..b.b.b.l.2.P 7 X r / r.b.b.b.b.b./ 5 n +.b.b.",
"( 5 n +.b.b...y < C 8.b.b.q.L 5 2 C  .l.b.b.b.b.b.b.] 5 n +.b.b.",
"] 5 n +.b.b.l.] w < ] b.b.q.L t L 8.b.b.b.b.b.b.b.b.( 5 n +.b.b.",
"] 6 y ..c.l.y.:.] / 7.c.b.l.2...l.b.b.b.b.b.b.b.b.l.I 1 V 8.b.b.",
" .w q ] :.{ ) E E ) { :.l.b.b.b.b.b.b.b.b.b.b.b.b.q.S < H l.b.b.",
"+.b 3 K ) Y z z z z Y Q / I P ^ | q.b.b.b.b.b.b.b...r 7 ] b.b.b.",
"l.F < M v z z z z z f u 4 , @ 1 q S  .l.b.b.b.b.l.^ 1 b +.b.b.b.",
"b./ 3 0 j z z z z g *   4 N G m 8 X t P q.b.b.b.@.m < L l.b.b.b.",
"b. .e % p z z z z f # : h ` q.-.( m 3 3 ] b.b.l.L < w  .b.b.b.b.",
"b.:.B O - f z z z k f j Y ' p.b.l.@./ ] q.b.l./ q < P l.b.b.b.b.",
"b.l.! =   - s k z z z z T { l.b.b.b.b.b.b.q.^ t 2 Z 2.b.b.b.b.b.",
"b.l.$.x ;   % i j z z z E $.l.b.b.b.l.8. .F 6 , m X.b.b.b.b.b.b.",
"b.b.y.` l i %   : d g l ! | | ] ] / P V w O 5 G +.l.b.b.b.b.b.b.",
"b.b.c.:._ Y p * + & = e y t w q 9 3 , < 8 N / q.b.b.b.b.b.b.b.b.",
"b.b.b.c.y.} ) D a 0 6 6 6 8 w r y m F P ] 2.l.b.b.b.b.b.b.b.b.b.",
"b.b.b.b.b.l.p.7.&.| ] ] ] ] |  ...+.l.b.b.b.b.b.b.b.b.b.b.b.b.b.",
"b.b.b.b.b.b.b.b.b.b.b.b.b.b.b.b.b.b.b.b.b.b.b.b.b.b.b.b.b.b.b.b.",
"b.b.b.b.b.b.b.b.b.b.b.b.b.b.b.b.b.b.b.b.b.b.b.b.b.b.b.b.b.b.b.b."
};
