/* XPM */
static const char *floor[] = {
/* columns rows colors chars-per-pixel */
"32 32 80 1 ",
"  c #B5BE96",
". c #B5BE97",
"X c #B6BF97",
"o c #B6BF98",
"O c #B7C099",
"+ c #B7C09A",
"@ c #B7C19B",
"# c #B9C39E",
"$ c #BAC49F",
"% c #BAC4A0",
"& c #BAC5A1",
"* c #BBC5A1",
"= c #BBC5A2",
"- c #BBC6A3",
"; c #BCC6A4",
": c #BCC7A5",
"> c #BDC8A6",
", c #BDC9A7",
"< c #BEC9A8",
"1 c #BECAA9",
"2 c #BFCBAA",
"3 c #BFCBAB",
"4 c #C0CCAC",
"5 c #C0CCAD",
"6 c #C1CDAE",
"7 c #C2CEB0",
"8 c #C2CFB1",
"9 c #C2CFB2",
"0 c #C3D0B3",
"q c #C4D1B4",
"w c #C4D1B5",
"e c #C5D2B6",
"r c #C5D2B7",
"t c #C5D3B7",
"y c #C5D3B8",
"u c #C7D5BB",
"i c #C8D7BE",
"p c #C9D7BE",
"a c #C9D8BF",
"s c #CAD8C0",
"d c #CAD9C1",
"f c #CAD9C2",
"g c #CBDAC2",
"h c #CBDAC3",
"j c #CBDBC4",
"k c #CCDBC5",
"l c #CCDCC6",
"z c #CDDCC6",
"x c #CDDCC7",
"c c #CDDDC7",
"v c #CDDDC8",
"b c #CEDDC8",
"n c #CEDEC9",
"m c #CEDECA",
"M c #CFDFCB",
"N c #CFDFCC",
"B c #D0E0CD",
"V c #D1E1CF",
"C c #D2E3D2",
"Z c #D2E4D2",
"A c #D3E4D3",
"S c #D3E4D4",
"D c #D3E5D4",
"F c #D4E5D5",
"G c #D4E6D6",
"H c #D4E6D7",
"J c #D5E7D9",
"K c #D6E8D9",
"L c #D6E8DA",
"P c #D6E9DB",
"I c #D7E9DB",
"U c #D7E9DC",
"Y c #D7EADC",
"T c #D7EADD",
"R c #D8EADD",
"E c #D8EBDE",
"W c #D8EBDF",
"Q c #D9EBDF",
"! c #D9ECDF",
"~ c #D9ECE0",
/* pixels */
"~~~!EUUE!~~~~~~~~~~~~~~~~~~~~~~~",
"~~UCziizZU~~~~~~~~~~~~~~~~~~~~~~",
"~Lz7%##:7zL~~~~~~~~~~~~~~~~~~~~~",
"Uz1O    O1vU~~~~~~~~~~~~~~~~~~~~",
"Z7O      O0Z!~~~~~~~~~~~~~~~~~~~",
"z:        >vE~~~~~~~~~~~~~~~~~~~",
"s$        %sU~~~~~~~~~~~~~~~~~~~",
"s%        %sU~~~~~~~~~~~~~~~~~~~",
"v>        >vE~~~~~~~~~~~~~~~~~~~",
"DrO      OrF~~~~~~~~~~~~~~~~~~~~",
"Uv6O    O6vU~~~~~~~~~~~~~~~~~~~~",
"~Lvr1%%1rNL~~~~~~~~~~~~~~~~~~~~~",
"~~UFvkkvFE~~~~~~~~~~~~~~~~~~~~~~",
"~~~!EEEE!~~~~~~~~~~~~~~~~~~~~~~~",
"~~~~~~~~~~~~~~~~~~~~~~~~~~~~~~~~",
"~~~~~~~~~~~~~~~~~~~~~~~~~~~~~~~~",
"~~~~~~~~~~~~~~~~~~~~~~~~~~~~~~~~",
"~~~~~~~~~~~~~~~~~~~~!ELFFLE!~~~~",
"~~~~~~~~~~~~~~~~~~~EFz0110zFE~~~",
"~~~~~~~~~~~~~~~~~~EDr#    #rDE~~",
"~~~~~~~~~~~~~~~~~~Ju#      #uJ~~",
"~~~~~~~~~~~~~~~~~EB1        1BE~",
"~~~~~~~~~~~~~~~~~Es%        %sE~",
"~~~~~~~~~~~~~~~~~Ua#        #aU~",
"~~~~~~~~~~~~~~~~~Ej%        %jE~",
"~~~~~~~~~~~~~~~~~EB1        1BE~",
"~~~~~~~~~~~~~~~~~~Li%      %iL~~",
"~~~~~~~~~~~~~~~~~~EFu%o  o%uF!~~",
"~~~~~~~~~~~~~~~~~~~!Lvy66yvL!~~~",
"~~~~~~~~~~~~~~~~~~~~~EULLUE~~~~~",
"~~~~~~~~~~~~~~~~~~~~~~~~~~~~~~~~",
"~~~~~~~~~~~~~~~~~~~~~~~~~~~~~~~~"
};
