/* XPM */
static const char *player[] = {
/* columns rows colors chars-per-pixel */
"32 32 131 2 ",
"   c #462650",
".  c #472852",
"X  c #4B2C55",
"o  c #4E3157",
"O  c #4E3159",
"+  c #51355C",
"@  c #54395E",
"#  c #573C61",
"$  c #583E62",
"%  c #5A425D",
"&  c #5A4265",
"*  c #5E4768",
"=  c #5F4869",
"-  c #634E63",
";  c #624C6C",
":  c #65506F",
">  c #675271",
",  c #695673",
"<  c #6C5A76",
"1  c #6E5D78",
"2  c #705F7A",
"3  c #70606A",
"4  c #746575",
"5  c #786A76",
"6  c #72627C",
"7  c #766780",
"8  c #776980",
"9  c #7A6C83",
"0  c #7D7187",
"q  c #847A86",
"w  c #80758A",
"e  c #847A8D",
"r  c #877E90",
"t  c #949282",
"y  c #989784",
"u  c #9E9F87",
"i  c #9F9F8A",
"p  c #8A8393",
"a  c #8E8897",
"s  c #8F8898",
"d  c #938D9B",
"f  c #96929E",
"g  c #9C9A9E",
"h  c #A9AD8E",
"j  c #A0A09D",
"k  c #ACB394",
"l  c #B5BE96",
"z  c #B6BF98",
"x  c #9794A0",
"c  c #9996A2",
"v  c #9C9AA4",
"b  c #A09FA8",
"n  c gray63",
"m  c #A3A3AB",
"M  c #A7A8AF",
"N  c #B1B7A5",
"B  c #A9ACB1",
"V  c #AEB2B5",
"C  c #B1B5B9",
"Z  c #B5BBBD",
"A  c #B7C09B",
"S  c #B9C39E",
"D  c #BBC5A2",
"F  c #BDC8A7",
"G  c #BECAA9",
"H  c #BEC9B1",
"J  c #BBC4BB",
"K  c #C0CCAC",
"L  c #C2CFB2",
"P  c #C4D2B5",
"I  c #C6D4BA",
"U  c #C8D7BE",
"Y  c #C9D8BF",
"T  c #BAC2C2",
"R  c #BFC9C7",
"E  c #C0CAC7",
"W  c #C2CECA",
"Q  c #CCDBC5",
"!  c #C6D3CD",
"~  c #C8D5CE",
"^  c #CEDEC9",
"/  c #CEDECA",
"(  c #CEDECB",
")  c #CFDFCB",
"_  c #CEDECA",
"`  c #C8D6D0",
"'  c #CBD9D2",
"]  c #CBDAD3",
"[  c #CEDDD0",
"{  c #CDDBD4",
"}  c #CDDCD4",
"|  c #CEDED6",
" . c #CCDBD4",
".. c #D0DFD7",
"X. c #D0DFD7",
"o. c #D1E1CE",
"O. c #D2E3D2",
"+. c #D2E4D2",
"@. c #D0E0D7",
"#. c #D3E5D4",
"$. c #D4E6D6",
"%. c #D3E4D6",
"&. c #D1E1D8",
"*. c #D1E2D9",
"=. c #D2E2D9",
"-. c #D2E3DA",
";. c #D3E4DA",
":. c #D4E7D9",
">. c #D4E5DA",
",. c #D4E6DB",
"<. c #D5E6DC",
"1. c #D5E7DD",
"2. c #D4E5DA",
"3. c #D6E8DA",
"4. c #D6E8DC",
"5. c #D7E9DC",
"6. c #D6E8DD",
"7. c #D7E9DD",
"8. c #D7EADC",
"9. c #D7EADD",
"0. c #D7E9DE",
"q. c #D7EADE",
"w. c #D6E9DC",
"e. c #D8EADE",
"r. c #D8EBDE",
"t. c #D8EADF",
"y. c #D8EBDF",
"u. c #D9ECDF",
"i. c #D8EBDF",
"p. c #D9ECE0",
"a. c #D9ECE0",
/* pixels */
"p.p.p.u.r.5.5.r.u.p.p.p.p.p.p.p.p.p.p.p.p.p.p.p.p.p.p.p.p.p.p.p.",
"p.p.5.O.Q U U Q +.5.p.p.p.p.p.p.p.p.p.p.p.p.p.p.p.p.p.p.p.p.p.p.",
"p.3.Q L D S S F L Q 3.r.r.r.r.5.5.r.r.r.p.p.p.p.p.p.p.p.p.p.p.p.",
"5.Q G A l l l l A G J B M C C f f m B T *.p.p.p.p.p.p.p.p.p.p.p.",
"+.L A l l l l l l i 4 & $ ; ;   X @ & , x ! r.p.p.p.p.p.p.p.p.p.",
"Q F l l l l l l h 3   @ ; & + @ , , = + # p ~ p.p.p.p.p.p.p.p.p.",
"Q S l l l l l l y % + q V m s f Z T B w @ & b >.p.p.p.p.p.p.p.p.",
"Q D l l l l l l t % % j 5.5.*.@.5.r.r.W 0 + 9 ! p.p.p.p.p.p.p.p.",
"/ F l l l l l l t % % n 5.p.p.p.p.p.p.5.v $ < T r.p.p.p.p.p.p.p.",
"#.P A l l l l l u - + f <.p.p.p.p.p.p.<.v # 1 T p.p.p.p.p.p.p.p.",
"5./ K A l l l l k 5 o 9 ! p.p.p.p.r.>.T 7 + w ` p.p.p.p.p.p.p.p.",
"r.>./ P G D D G L g $ = M ;.5.*.! C x 6 + & m <.p.p.p.p.p.r.;.*.",
"T M T [ / Q Q / $.E 8 + < d f p 8 > # + : c ] p.p.p.r.r.@.Z c c ",
"e $ 1 d V ~ >.5.u.<.B ; . O + X O & < r C } p.r.r.*.R m r > + & ",
"m , + + ; 0 c Z } r.*.V 2 X $ 9 d m T { 5.r.*.E M p 1 #   + < v ",
"..Z d 6 & X @ > r B ] <.v @ , C 5.r.5.<.! B a 6 & X + ; 9 c T *.",
"p.r.;.R m p , + X & e C m & ; V 5.` V d 8 * + + ; 0 x C ~ <.r.p.",
"p.p.p.r.5...T c 6 # X ; 8 & & v m 0 ; + + * 8 d V ! >.r.p.p.p.p.",
"p.p.p.p.p.p.r.<.W v 6 @ O + # e & X & 6 p n N D F P Q $.r.p.p.p.",
"p.p.p.p.p.p.p.p.p.<.R f 6 & + e < e m J H A l l l l S P #.r.p.p.",
"p.p.p.p.p.p.p.p.p.p.p.>.V , + f T { #.I S l l l l l l S I >.p.p.",
"p.p.p.p.p.p.p.p.p.p.p.p.Z , @ m 5.r.o.G l l l l l l l l G o.r.p.",
"p.p.p.p.p.p.p.p.p.p.p.r.V ; $ m r.r.Q D l l l l l l l l D Q r.p.",
"p.p.p.p.p.p.p.p.p.p.p.*.f + + v ;.5.Y S l l l l l l l l S Y 5.p.",
"p.p.p.p.p.p.p.p.p.p.@.B , .   6 E 5.Q D l l l l l l l l D Q r.p.",
"p.p.p.p.p.p.p.p.p...m > @ ; & # v >.o.G l l l l l l l l G o.r.p.",
"p.p.p.p.p.p.p.r.] v ; . 6 B e O 6 T >.U D l l l l l l D U 3.p.p.",
"p.p.p.p.p.p.<.T p * @ 6 Z ;.Z > + p { $.I D z l l z D I $.u.p.p.",
"p.p.p.p.p.} m 2 @ @ w T 5.p...f # * m ;.3./ I K K I / 3.u.p.p.p.",
"p.p.p.p.] c *   ; d W 5.p.p.p.W 9 X < C >.r.5.3.3.5.r.p.p.p.p.p.",
"p.p.p.r.Z ; $ 8 V ..p.p.p.p.p.5.V , + 6 C <.p.p.p.p.p.p.p.p.p.p.",
"p.p.p.r.] M m W 5.p.p.p.p.p.p.p.*.B , + r ] p.p.p.p.p.p.p.p.p.p."
};
